<?xml version="1.0" standalone="no"?>
<!DOCTYPE svg PUBLIC "-//W3C//DTD SVG 20010904//EN"
 "http://www.w3.org/TR/2001/REC-SVG-20010904/DTD/svg10.dtd">
<svg version="1.0" xmlns="http://www.w3.org/2000/svg"
 width="16.000000pt" height="16.000000pt" viewBox="0 0 16.000000 16.000000"
 preserveAspectRatio="xMidYMid meet">
<metadata>
Created by potrace 1.11, written by Peter Selinger 2001-2013
</metadata>
<g transform="translate(0.000000,16.000000) scale(0.006154,-0.006154)"
fill="#000000" stroke="none">
<path d="M1801 2504 c0 -11 3 -14 6 -6 3 7 2 16 -1 19 -3 4 -6 -2 -5 -13z"/>
<path d="M1617 2493 c-9 -3 -14 -9 -10 -15 4 -8 0 -9 -12 -4 -35 13 -105 17
-105 6 0 -5 6 -10 13 -11 6 -1 21 -2 32 -2 11 -1 21 -6 22 -11 1 -5 7 -12 14
-17 23 -14 2 -21 -23 -8 l-23 12 20 -23 20 -23 -37 24 c-20 13 -34 27 -32 30
2 4 -8 15 -22 24 -15 9 -23 12 -20 6 5 -7 -2 -11 -19 -11 -15 0 -24 -4 -20
-10 3 -5 1 -10 -5 -10 -6 0 -8 -4 -5 -10 10 -15 -8 -12 -35 7 l-25 18 23 -29
c12 -16 21 -31 19 -33 -8 -8 -56 17 -66 34 -25 44 -26 45 -54 32 -15 -7 -27
-16 -27 -20 0 -15 22 -22 30 -9 4 7 13 9 20 5 9 -6 9 -9 -1 -16 -10 -6 -5 -10
18 -15 18 -3 38 -13 45 -21 10 -12 7 -13 -17 -7 -22 5 -26 4 -20 -6 9 -14 -1
-10 -47 22 -41 28 -46 21 -8 -12 19 -16 30 -29 23 -30 -6 0 -14 4 -17 9 -3 5
-17 11 -30 13 l-24 5 21 -29 c11 -15 24 -28 27 -28 3 0 15 -7 26 -15 17 -14
17 -14 -11 -4 -49 18 -95 27 -95 19 0 -5 8 -11 18 -13 14 -4 14 -5 -3 -6 -17
-1 -18 -3 -5 -12 12 -9 10 -10 -8 -6 -18 4 -22 2 -18 -9 3 -8 2 -14 -2 -15
-40 -6 -81 -5 -101 2 -40 16 -35 3 8 -18 22 -11 39 -16 38 -10 -1 5 5 12 13
14 10 3 11 2 4 -4 -6 -4 -10 -16 -8 -25 1 -10 -4 -18 -11 -18 -8 0 -18 -6 -22
-13 -8 -14 -58 -49 -67 -48 -22 3 -28 -1 -23 -19 7 -26 -9 -26 -23 0 -6 11
-15 18 -21 14 -7 -4 -6 -10 0 -18 14 -16 4 -26 -17 -19 -11 5 -14 2 -10 -9 4
-9 2 -20 -4 -26 -7 -7 -5 -17 6 -33 18 -26 22 -89 6 -89 -5 0 -10 8 -10 18 0
14 -2 15 -10 2 -12 -19 -13 -43 -1 -36 4 3 6 -7 5 -22 -2 -15 -1 -21 2 -14 9
20 24 14 25 -10 0 -15 3 -18 6 -8 7 16 29 40 37 40 3 0 3 -26 1 -57 -4 -40 -2
-53 5 -43 18 28 10 0 -10 -32 -21 -34 -28 -32 -10 3 6 10 7 19 3 19 -18 0 -29
-39 -31 -107 l-2 -73 34 0 c43 0 46 9 45 123 0 51 4 105 10 120 15 38 14 47
-4 41 -22 -9 -18 9 5 24 26 16 66 79 74 119 7 29 23 50 55 68 9 5 12 4 7 -3
-10 -17 -3 -15 45 13 24 14 52 25 62 25 9 0 17 5 17 10 0 6 11 10 24 10 25 0
88 19 96 30 12 15 79 27 89 17 8 -8 11 -7 11 3 0 13 2 13 9 1 8 -12 11 -12 23
0 7 8 21 29 29 47 14 29 17 31 22 13 3 -12 -3 -27 -15 -38 -11 -10 -25 -27
-30 -38 -11 -19 -10 -19 9 -2 26 23 37 22 30 -4 -4 -15 -2 -18 7 -10 7 6 16 8
19 4 4 -3 14 0 24 8 15 12 16 12 10 -3 -5 -13 -1 -16 16 -12 12 3 38 6 57 8
19 2 48 8 63 15 38 15 40 14 34 -8 -3 -13 0 -18 8 -15 7 3 29 -4 49 -15 42
-24 50 -26 40 -8 -6 9 -4 9 7 1 8 -6 25 -15 39 -19 45 -14 149 -105 150 -131
0 -7 7 -15 16 -18 8 -3 12 -11 9 -16 -4 -6 -2 -17 4 -24 7 -8 12 -47 12 -88 0
-41 5 -81 10 -89 7 -11 9 -9 9 9 0 15 4 21 12 16 8 -5 9 -2 5 9 -9 24 1 21 24
-5 20 -26 26 -64 7 -52 -8 5 -9 2 -5 -10 4 -10 7 -22 7 -27 0 -5 6 -9 13 -9
14 0 43 -68 33 -78 -4 -3 -9 4 -13 17 -4 15 -8 19 -13 11 -5 -8 -12 2 -20 26
-12 38 -46 81 -56 71 -10 -10 -5 -118 5 -131 7 -8 7 -24 2 -43 -9 -30 -8 -31
28 -37 64 -10 81 -8 75 12 -4 9 5 4 18 -12 24 -29 25 -29 30 -8 4 12 2 20 -2
17 -5 -3 -20 9 -34 27 -14 18 -21 35 -16 36 6 2 19 -6 29 -19 12 -16 23 -20
37 -15 14 5 15 9 5 15 -15 10 -10 47 7 44 7 -2 9 4 5 14 -4 11 -3 14 5 9 8 -5
12 1 12 18 0 14 -5 26 -10 26 -6 0 -10 6 -9 13 4 31 -3 45 -27 56 -14 6 -29 9
-34 6 -5 -3 -18 12 -30 35 -11 22 -16 40 -10 40 17 0 11 26 -10 45 -11 10 -17
22 -14 27 3 5 0 16 -8 26 -7 9 8 -1 34 -21 26 -21 49 -48 51 -60 2 -12 4 -3 4
21 0 23 -4 42 -9 42 -4 0 -8 5 -8 11 0 5 6 7 13 3 6 -4 9 -4 5 1 -5 5 -22 10
-40 12 -17 2 -36 8 -43 13 -7 5 -15 6 -20 2 -4 -4 -3 3 4 15 8 16 8 23 -2 27
-11 6 2 4 56 -9 32 -7 17 16 -20 32 -48 19 -48 20 -33 38 10 12 10 15 -1 15
-11 0 -11 2 0 9 22 14 -4 40 -32 34 -21 -5 -21 -5 -3 9 10 8 20 26 21 41 2 14
6 31 10 36 4 8 -2 8 -19 1 -17 -6 -26 -6 -30 3 -3 9 -7 8 -15 -3 -9 -13 -11
-12 -11 5 -1 18 -2 18 -14 -4 l-14 -24 -7 22 c-6 21 -8 20 -42 -14 -19 -19
-40 -35 -46 -35 -7 0 -5 5 3 10 11 8 -1 9 -42 6 -32 -2 -58 0 -58 5 0 5 24 9
53 10 42 0 48 2 29 10 -13 5 -20 14 -16 20 4 8 0 8 -15 0 -17 -10 -21 -9 -21
4 0 8 6 15 13 15 6 0 22 3 35 6 18 5 21 3 16 -10 -9 -22 12 -20 36 4 12 12 20
15 20 8 0 -7 5 -5 11 5 16 27 7 38 -21 24 -22 -11 -27 -10 -42 8 -15 19 -17
19 -35 2 -11 -9 -23 -14 -26 -11 -4 4 -14 1 -22 -6 -13 -11 -16 -11 -13 1 2 8
8 17 13 22 6 4 5 10 -3 16 -10 6 -5 12 20 21 33 12 33 12 8 20 -14 4 -31 2
-37 -3 -16 -12 -17 5 -2 20 8 8 8 13 0 17 -6 4 -11 3 -11 -2 0 -5 -9 -12 -19
-15 -15 -4 -18 0 -16 19 1 14 -2 27 -8 31 -14 8 -29 -24 -34 -70 -4 -50 -11
-61 -29 -46 -11 9 -16 7 -22 -12 -9 -22 -9 -22 -14 9 -2 17 -3 30 0 28 5 -6
72 92 72 105 0 5 -4 9 -10 9 -5 0 -10 -9 -10 -19 0 -12 -9 -21 -26 -25 -15 -4
-27 -6 -29 -4 -1 2 -7 12 -13 23 -6 11 -12 15 -12 10 0 -20 -48 -9 -71 17 -14
14 -31 23 -42 21z m43 -54 c15 -28 5 -23 -15 7 -9 15 -12 23 -6 20 6 -4 16
-16 21 -27z m-265 -90 c9 -17 14 -33 11 -36 -3 -3 -10 7 -16 22 -6 15 -13 32
-16 36 -3 5 -3 9 0 9 3 0 13 -14 21 -31z m125 -4 c0 -5 -5 -3 -10 5 -5 8 -10
20 -10 25 0 6 5 3 10 -5 5 -8 10 -19 10 -25z m-91 -15 c11 -24 11 -24 -3 -6
-9 11 -16 24 -16 30 0 12 5 7 19 -24z m214 -43 c-19 -67 -26 -73 -17 -17 5 25
8 52 8 61 0 9 6 15 12 12 10 -3 9 -17 -3 -56z m70 -13 c-10 -28 -19 -42 -21
-32 -3 17 27 92 34 85 2 -2 -4 -26 -13 -53z m381 -90 c3 -8 2 -12 -4 -9 -6 3
-10 10 -10 16 0 14 7 11 14 -7z m-1104 -110 c0 -20 -7 -17 -20 6 -9 16 -8 18
5 14 8 -4 15 -12 15 -20z m-30 -3 c0 -5 -7 -11 -14 -14 -10 -4 -13 -1 -9 9 6
15 23 19 23 5z m24 -51 c-10 -16 -20 -28 -22 -26 -4 5 28 56 35 56 2 0 -4 -13
-13 -30z m1283 -232 c13 -25 18 -29 21 -15 3 17 21 24 23 10 0 -5 2 -19 3 -33
2 -14 6 -34 11 -45 4 -11 -2 -5 -14 13 -11 17 -24 32 -29 32 -8 0 -42 52 -42
64 0 14 11 4 27 -26z m24 -65 c13 -15 12 -15 -8 -4 -24 12 -29 21 -14 21 5 0
15 -7 22 -17z"/>
<path d="M1671 2483 c7 -12 15 -20 18 -17 3 2 -3 12 -13 22 -17 16 -18 16 -5
-5z"/>
<path d="M1190 2356 c0 -2 7 -7 16 -10 8 -3 12 -2 9 4 -6 10 -25 14 -25 6z"/>
<path d="M1998 2343 c7 -3 16 -2 19 1 4 3 -2 6 -13 5 -11 0 -14 -3 -6 -6z"/>
<path d="M2035 2330 c-3 -5 -1 -10 4 -10 6 0 11 5 11 10 0 6 -2 10 -4 10 -3 0
-8 -4 -11 -10z"/>
<path d="M1057 2229 c7 -7 15 -10 18 -7 3 3 -2 9 -12 12 -14 6 -15 5 -6 -5z"/>
<path d="M989 2208 c-9 -32 -5 -38 26 -38 18 0 39 7 46 16 12 15 11 16 -11 9
-14 -4 -31 -10 -37 -12 -7 -3 -13 -1 -13 5 0 6 6 13 13 15 7 3 5 6 -5 6 -10 1
-18 0 -19 -1z"/>
<path d="M2289 2153 c-1 -5 -1 -12 0 -16 1 -4 -8 -17 -19 -29 -26 -28 -26 -29
10 -63 27 -26 30 -27 31 -9 3 59 0 85 -10 97 -6 8 -8 17 -4 20 3 4 3 7 0 7 -4
0 -8 -3 -8 -7z"/>
<path d="M2333 1916 c4 -9 1 -31 -6 -49 -17 -39 -12 -57 14 -57 14 0 19 7 19
30 0 17 -4 30 -9 30 -4 0 -6 11 -4 24 3 13 -1 27 -8 31 -9 6 -11 3 -6 -9z"/>
<path d="M2260 1858 c0 -15 24 -48 36 -48 10 0 3 20 -16 41 -15 19 -19 21 -20
7z"/>
<path d="M1201 1670 l-23 -19 23 -5 c62 -13 95 -15 108 -7 11 7 10 11 -7 20
-11 6 -32 11 -47 11 -15 0 -24 4 -20 10 10 17 -11 11 -34 -10z"/>
<path d="M1715 1660 c-3 -6 1 -7 9 -4 18 7 21 14 7 14 -6 0 -13 -4 -16 -10z"/>
<path d="M1744 1647 c-10 -12 -12 -16 -4 -9 16 14 34 16 26 3 -11 -17 25 -21
61 -6 44 18 39 25 -20 30 -37 3 -49 -1 -63 -18z"/>
<path d="M1033 1606 c-63 -30 -84 -64 -82 -138 l2 -53 6 55 c7 65 31 106 69
121 16 7 74 9 143 7 97 -4 125 -9 171 -31 31 -14 62 -35 68 -48 18 -33 5 -114
-30 -186 -25 -51 -38 -65 -76 -83 -39 -19 -57 -22 -127 -18 -96 5 -157 32
-187 81 -11 18 -20 28 -20 22 0 -26 44 -78 78 -92 65 -27 164 -38 226 -24 67
15 95 45 151 159 40 82 48 92 81 92 29 0 51 -27 73 -92 52 -152 113 -196 271
-197 63 0 96 4 127 19 44 20 83 69 83 105 0 13 -9 4 -23 -25 -33 -66 -77 -85
-192 -84 -72 0 -98 5 -132 22 -88 46 -149 204 -111 287 17 38 70 56 185 62
134 8 214 -8 248 -49 25 -30 29 -53 25 -143 -2 -48 5 -59 14 -19 13 65 20 85
37 100 19 17 25 68 11 91 -4 7 -41 17 -81 23 -40 6 -77 13 -82 15 -4 3 -68 6
-141 6 -102 1 -142 -3 -170 -15 -21 -9 -38 -21 -38 -27 0 -8 -4 -8 -14 0 -9 8
-21 8 -45 0 -17 -6 -39 -9 -49 -7 -14 4 -17 -2 -17 -30 0 -41 -20 -54 -30 -20
-4 13 -9 31 -11 41 -4 11 0 17 13 18 15 0 14 2 -5 9 -12 5 -28 7 -36 4 -8 -3
-23 3 -34 14 -25 25 -103 43 -212 48 -75 4 -91 2 -137 -20z"/>
<path d="M1328 1532 c21 -19 20 -19 -56 -15 -50 3 -72 1 -63 -5 7 -5 22 -7 32
-5 13 4 19 0 19 -11 0 -9 5 -16 10 -16 6 0 10 7 10 15 0 20 17 19 29 -2 6 -10
11 -12 11 -5 0 6 5 12 11 12 6 0 9 -7 5 -15 -4 -10 1 -15 14 -15 11 0 23 -1
26 -2 4 -2 8 9 10 23 2 21 -4 29 -32 43 -45 21 -52 20 -26 -2z"/>
<path d="M2153 1505 c0 -22 2 -30 4 -17 2 12 2 30 0 40 -3 9 -5 -1 -4 -23z"/>
<path d="M2290 1498 l0 -38 -65 0 c-51 0 -63 -3 -59 -14 3 -8 6 -36 7 -63 1
-30 7 -48 15 -49 24 -3 26 -4 14 -16 -16 -16 -15 -28 3 -28 13 0 15 -7 10 -34
-4 -19 -2 -36 3 -40 20 -12 28 57 19 164 -4 43 -3 46 2 15 l7 -40 13 33 c14
35 31 43 31 15 1 -37 30 19 30 57 0 20 -7 45 -15 56 -13 18 -14 17 -15 -18z
m-70 -152 c0 -12 -5 -7 -19 24 -11 24 -11 24 3 6 9 -11 16 -24 16 -30z"/>
<path d="M1157 1503 c-13 -13 -7 -21 13 -16 11 3 20 9 20 14 0 10 -24 12 -33
2z"/>
<path d="M1745 1490 c-17 -8 -16 -9 10 -9 53 1 105 -9 120 -21 8 -6 22 -10 32
-7 13 3 8 8 -20 21 -47 21 -116 29 -142 16z"/>
<path d="M1697 1473 c-10 -9 -9 -23 2 -23 5 0 11 7 15 15 5 15 -5 20 -17 8z"/>
<path d="M1350 1070 c0 -5 4 -10 9 -10 6 0 13 5 16 10 3 6 -1 10 -9 10 -9 0
-16 -4 -16 -10z"/>
<path d="M1565 1050 c27 -12 35 -12 35 0 0 6 -12 10 -27 9 -25 0 -26 -1 -8 -9z"/>
<path d="M1345 1012 c-11 -3 -33 -17 -49 -33 -16 -15 -34 -25 -39 -22 -6 4 -8
0 -4 -10 4 -11 2 -14 -8 -11 -8 3 -11 12 -8 20 4 11 0 12 -26 3 -17 -6 -34
-15 -37 -20 -3 -5 -11 -9 -19 -9 -14 0 -15 17 -1 38 6 10 3 13 -9 10 -18 -3
-29 -44 -14 -53 4 -3 -6 -19 -23 -36 -17 -16 -27 -33 -24 -37 4 -3 11 0 16 8
13 21 12 12 -4 -35 -10 -27 -11 -46 -4 -58 5 -10 8 -28 6 -40 -2 -12 5 -31 14
-41 14 -15 15 -22 6 -28 -20 -12 -22 -10 -42 32 -10 22 -28 48 -39 57 -16 15
-15 11 6 -27 13 -25 28 -60 32 -77 3 -18 10 -33 15 -33 4 0 11 -16 14 -36 6
-28 10 -33 21 -24 8 7 15 7 19 1 3 -5 0 -12 -6 -14 -10 -4 -10 -6 0 -6 6 -1
12 -10 12 -22 0 -11 5 -17 10 -14 6 3 10 0 10 -7 0 -8 16 -29 35 -48 19 -19
35 -39 35 -46 0 -7 -26 -20 -57 -29 -132 -38 -329 -164 -523 -334 l-35 -30
231 -1 231 0 12 41 c7 23 25 62 40 87 16 26 31 58 35 72 8 34 110 145 124 136
7 -4 12 -14 12 -22 0 -11 6 -13 19 -9 11 3 22 1 26 -5 4 -7 25 -9 56 -5 41 5
48 4 43 -8 -4 -12 4 -15 38 -14 24 1 46 7 50 12 4 6 8 2 8 -8 0 -10 4 -16 9
-12 5 3 13 0 17 -6 14 -23 194 17 194 42 0 6 16 19 35 30 19 12 32 25 29 30
-3 5 0 9 6 9 6 0 30 18 52 40 23 22 48 40 55 40 7 0 13 4 13 8 0 5 20 29 45
54 25 25 45 49 45 53 0 4 11 20 25 37 27 32 32 53 13 62 -7 3 -4 4 7 3 16 -2
20 4 22 33 1 19 2 40 3 45 1 6 2 13 1 18 0 4 6 7 14 7 8 0 15 7 15 15 0 28
-47 -5 -66 -46 -9 -22 -32 -54 -50 -71 -17 -17 -30 -37 -27 -44 2 -7 0 -15 -6
-19 -11 -6 -15 7 -11 35 1 8 -12 0 -29 -18 -29 -31 -36 -45 -32 -66 1 -5 -6
-6 -15 -2 -11 4 -18 0 -21 -14 -5 -20 -28 -27 -36 -12 -2 4 -8 24 -11 45 -6
31 -5 37 6 31 11 -6 11 -5 0 8 -10 13 -10 19 3 32 15 15 15 17 0 22 -17 7 -40
-16 -27 -26 13 -10 12 -30 -2 -30 -21 0 -31 -21 -15 -31 9 -6 10 -9 2 -9 -6 0
-19 7 -27 16 -16 16 -20 12 -17 -17 1 -8 -4 -27 -12 -41 -13 -26 -13 -26 -26
-6 -11 18 -11 20 3 15 20 -8 29 7 21 34 l-7 21 -24 -23 c-16 -15 -21 -26 -15
-38 6 -11 4 -21 -6 -30 -13 -12 -14 -11 -8 10 7 24 7 24 -13 4 -14 -14 -17
-25 -11 -37 14 -26 10 -35 -5 -15 -11 14 -19 16 -33 9 -10 -5 -24 -7 -32 -4
-8 2 -18 -3 -23 -12 -5 -9 -17 -16 -26 -16 -10 0 -13 3 -7 8 6 4 19 18 30 31
l20 24 -25 -14 c-14 -7 -29 -12 -33 -11 -5 1 -6 -2 -3 -7 7 -11 -22 -23 -36
-15 -6 4 -8 -2 -4 -17 3 -13 3 -18 0 -11 -3 6 -10 10 -15 7 -5 -4 -6 0 -3 8 7
18 -11 30 -48 32 -23 2 -28 -2 -28 -22 0 -22 -2 -23 -15 -9 -18 18 -19 48 -3
64 9 9 9 12 0 12 -7 0 -5 11 6 30 9 16 21 30 26 30 5 0 3 -6 -3 -14 -7 -8 -8
-17 -3 -20 5 -3 15 5 22 18 7 14 21 27 31 29 11 3 19 11 19 17 0 9 -4 9 -17
-1 -16 -11 -16 -11 -5 1 7 8 18 15 24 15 6 0 13 6 16 14 3 8 0 11 -6 8 -10 -7
-34 15 -31 29 1 5 1 17 0 28 -1 15 -4 16 -16 6 -9 -8 -13 -21 -10 -34 5 -17 4
-18 -4 -6 -6 8 -8 24 -5 35 4 16 3 17 -5 5 -6 -8 -8 -23 -5 -33 3 -10 -1 -24
-9 -30 -8 -7 -25 -31 -38 -55 -18 -33 -21 -47 -13 -60 12 -19 7 -89 -7 -98
-15 -9 -11 -21 19 -55 l27 -34 -32 23 c-20 14 -33 32 -33 45 0 37 -11 65 -27
71 -11 4 -13 2 -10 -9 4 -8 2 -17 -3 -20 -6 -4 -10 3 -10 14 0 12 -5 21 -10
21 -7 0 -7 6 -1 18 13 24 10 60 -4 58 -20 -3 -64 -38 -68 -54 -4 -16 -5 -16
-6 0 0 9 3 19 9 23 6 3 5 15 -2 31 -8 18 -14 21 -20 12 -6 -10 -8 -9 -8 4 0 9
7 23 15 32 8 8 15 17 15 20 0 12 -28 6 -33 -6 -3 -8 -6 -6 -6 5 -1 23 2 33 12
30 4 -2 7 2 7 7 0 6 -5 10 -11 10 -6 0 -9 7 -5 15 3 8 1 15 -4 15 -5 0 -7 7
-3 16 5 14 3 14 -15 3 -11 -7 -18 -17 -16 -21 3 -4 0 -8 -5 -8 -16 0 -13 29 4
46 8 8 17 14 20 14 4 -1 9 1 13 4 3 3 -1 6 -9 6 -11 0 -11 2 -1 9 7 4 14 17
15 29 1 20 14 29 62 48 19 7 19 8 -2 11 -13 3 -23 9 -23 14 0 12 30 11 70 -2
26 -9 34 -9 41 2 6 10 9 11 9 2 0 -19 18 -16 42 7 20 18 20 20 3 26 -17 7 -17
8 -1 19 9 7 16 17 14 21 -1 5 3 19 10 30 10 18 9 22 -6 26 -9 2 -26 2 -37 0z
m9 -47 c-4 -8 -11 -15 -16 -15 -6 0 -5 6 2 15 7 8 14 15 16 15 2 0 1 -7 -2
-15z m-158 -57 c4 -7 4 -10 -1 -6 -4 4 -15 2 -24 -5 -14 -11 -14 -10 -2 6 16
20 18 21 27 5z m-66 -113 c-7 -9 -15 -13 -17 -11 -7 7 7 26 19 26 6 0 6 -6 -2
-15z m840 -190 c-7 -9 -15 -13 -19 -10 -3 3 1 10 9 15 21 14 24 12 10 -5z
m-17 -40 c-3 -9 -8 -14 -10 -11 -3 3 -2 9 2 15 9 16 15 13 8 -4z m-573 -4 c0
-6 -4 -13 -10 -16 -5 -3 -10 1 -10 9 0 9 5 16 10 16 6 0 10 -4 10 -9z m370 -1
c0 -5 -2 -10 -4 -10 -3 0 -8 5 -11 10 -3 6 -1 10 4 10 6 0 11 -4 11 -10z
m-573 -32 c-3 -7 -5 -2 -5 12 0 14 2 19 5 13 2 -7 2 -19 0 -25z m76 12 c-3
-12 -8 -19 -11 -16 -5 6 5 36 12 36 2 0 2 -9 -1 -20z m394 -99 c0 -10 -7 -17
-13 -14 -7 3 -10 11 -7 19 8 20 22 17 20 -5z m-330 -13 c-3 -8 -6 -5 -6 6 -1
11 2 17 5 13 3 -3 4 -12 1 -19z m-29 -53 c-3 -3 -9 2 -12 12 -6 14 -5 15 5 6
7 -7 10 -15 7 -18z"/>
<path d="M2146 995 c-3 -8 -3 -29 1 -47 4 -20 3 -29 -4 -25 -10 6 -25 -62 -16
-72 12 -15 28 29 39 111 5 37 -9 60 -20 33z"/>
<path d="M2180 985 c0 -8 4 -15 10 -15 5 0 7 7 4 15 -4 8 -8 15 -10 15 -2 0
-4 -7 -4 -15z"/>
<path d="M1555 960 l18 -35 -22 19 c-11 11 -21 14 -21 8 0 -6 4 -13 9 -16 4
-3 6 -17 3 -31 -6 -33 15 -57 42 -49 12 4 24 12 28 18 4 6 10 8 13 4 3 -3 -1
-13 -10 -22 -11 -10 -12 -16 -4 -16 6 0 17 7 24 17 10 13 9 22 -4 44 -15 27
-17 27 -35 11 -11 -9 -16 -11 -12 -5 4 7 2 22 -5 34 -9 17 -8 23 2 30 7 4 10
12 5 16 -5 4 -11 2 -13 -5 -4 -10 -8 -10 -21 0 -12 11 -12 6 3 -22z"/>
<path d="M1454 956 c-3 -9 -11 -13 -17 -9 -6 4 -7 1 -2 -7 10 -16 -17 -33 -28
-17 -5 7 -6 0 -2 -18 4 -16 11 -35 16 -42 11 -12 95 -11 107 2 4 5 1 4 -7 0
-11 -6 -13 -4 -8 9 4 11 3 15 -4 10 -6 -3 -10 1 -9 12 4 34 0 54 -10 54 -5 0
-10 -9 -10 -19 0 -11 -5 -23 -12 -27 -8 -5 -9 -2 -5 9 4 10 2 17 -5 17 -7 0
-6 5 2 15 7 9 10 18 7 22 -4 3 -9 -2 -13 -11z"/>
<path d="M1713 885 c-4 -13 -7 -14 -14 -3 -5 7 -7 -4 -6 -29 1 -39 4 -43 32
-49 16 -3 36 -11 43 -16 8 -7 12 -7 12 2 0 8 3 10 7 6 12 -11 13 -77 2 -98
-15 -27 5 -23 36 8 20 20 26 34 23 54 -3 23 -1 27 14 25 22 -5 23 5 3 31 -17
22 -20 38 -5 29 6 -4 7 1 3 11 -6 15 -7 15 -15 -1 -5 -9 -8 -22 -5 -28 2 -7
-3 -19 -11 -27 -14 -13 -15 -12 -10 2 4 10 -1 23 -12 33 -11 10 -22 26 -25 36
-4 11 -11 17 -16 14 -5 -3 -18 -1 -29 5 -16 9 -22 8 -27 -5z m21 -11 c3 -8 2
-12 -4 -9 -6 3 -10 10 -10 16 0 14 7 11 14 -7z m-11 -28 c6 -14 0 -26 -13 -26
-3 0 -6 9 -6 20 0 23 11 27 19 6z m65 -31 c-3 -3 -9 2 -12 12 -6 14 -5 15 5 6
7 -7 10 -15 7 -18z"/>
<path d="M1640 849 c0 -5 5 -7 10 -4 6 3 10 8 10 11 0 2 -4 4 -10 4 -5 0 -10
-5 -10 -11z"/>
<path d="M1638 803 c7 -3 16 -2 19 1 4 3 -2 6 -13 5 -11 0 -14 -3 -6 -6z"/>
<path d="M1010 791 c0 -6 4 -13 10 -16 6 -3 7 1 4 9 -7 18 -14 21 -14 7z"/>
<path d="M1482 690 c-7 -18 -7 -32 -1 -35 5 -4 9 -5 10 -3 3 15 6 68 4 68 -2
0 -8 -13 -13 -30z"/>
<path d="M1880 640 c0 -5 5 -10 11 -10 5 0 7 5 4 10 -3 6 -8 10 -11 10 -2 0
-4 -4 -4 -10z"/>
<path d="M1270 600 c-8 -5 -10 -10 -5 -10 6 0 17 5 25 10 8 5 11 10 5 10 -5 0
-17 -5 -25 -10z"/>
<path d="M1211 574 c0 -11 3 -14 6 -6 3 7 2 16 -1 19 -3 4 -6 -2 -5 -13z"/>
<path d="M1450 553 c0 -7 4 -13 9 -13 5 0 11 6 14 13 3 8 -1 14 -9 14 -8 0
-14 -6 -14 -14z"/>
<path d="M1671 552 c-17 -31 -13 -40 5 -14 9 13 14 26 11 29 -3 2 -10 -4 -16
-15z"/>
<path d="M2246 511 c-37 -6 -37 -7 -20 -22 11 -9 34 -24 52 -33 18 -10 36 -24
39 -32 3 -9 -21 -44 -64 -92 -95 -106 -145 -174 -187 -259 l-36 -73 285 0 285
0 0 113 c0 116 -6 137 -41 137 -27 0 -69 39 -69 66 0 13 -5 24 -11 24 -7 0 -9
11 -5 31 5 26 1 35 -23 56 -26 23 -28 28 -15 41 8 8 12 17 9 20 -3 3 -10 1
-16 -5 -8 -8 -17 -5 -34 13 -23 25 -60 29 -149 15z"/>
<path d="M1491 484 c0 -11 3 -14 6 -6 3 7 2 16 -1 19 -3 4 -6 -2 -5 -13z"/>
<path d="M2525 348 c1 -21 12 -41 34 -60 18 -16 35 -27 38 -24 5 5 -62 116
-70 116 -2 0 -3 -14 -2 -32z"/>
<path d="M1239 213 c-29 -46 -31 -148 -4 -189 9 -14 19 -23 23 -20 3 4 0 12
-6 18 -15 15 -15 103 0 131 15 29 28 97 17 97 -4 0 -18 -17 -30 -37z"/>
</g>
</svg>
